<svg id="Layer_1" data-name="Layer 1" xmlns="http://www.w3.org/2000/svg" xmlns:xlink="http://www.w3.org/1999/xlink" viewBox="0 0 1080 1080"><defs><style>.cls-1{fill:url(#linear-gradient);}.cls-2{fill:#1a1a1a;}</style><linearGradient id="linear-gradient" x1="294.08" y1="219.45" x2="633.41" y2="712.82" gradientUnits="userSpaceOnUse"><stop offset="0" stop-color="#ffbd1e"/><stop offset="1" stop-color="#f97000"/></linearGradient></defs><path class="cls-1" d="M744.12,460.26A284.14,284.14,0,0,1,491.8,742.87a2.63,2.63,0,0,1-.5.06,286.39,286.39,0,0,1-31.59,1.74,282.49,282.49,0,0,1-41.17-3c-103.84-15-189.45-86.14-225.23-181.64l170.05-8.4,56.95-2.83-58.57-2.89L185.82,537.2a284.34,284.34,0,0,1-10.53-76.94c0-157.08,127.32-284.42,284.42-284.42,124.36,0,230.06,79.8,268.7,191l-193,9.55,199,9.85A283.51,283.51,0,0,1,744.12,460.26Z"/><path class="cls-2" d="M872.59,397.91h-6.11a25.85,25.85,0,0,0-13.71,4.22c-8,5.07-13.54,13.33-16.22,22.47L744,743.08c-17.05-54.65-31.15-98.27-42.59-132.86-25-75.79-37.48-108.32-40.93-119.15-12.27-38.25-19.35-52.79-40.35-52.79H616.4a31.65,31.65,0,0,0-16,4.49c-7,4.13-11.91,11.2-14.39,19C575.85,493.7,545.56,554,491.8,742.87l-.27.89-.23-.83L416.77,483.35l-3.13-10.94-8.08-28.14q-7.79-46.41-37.89-46.36h-5.43q-15.66,0-24.48,14.27c-6.13,10-7.25,22.3-4.21,33.68q7.6,28.36,28.19,100.07l58.57,2.89-56.95,2.83q21.11,73.4,55.18,190,14.34,49.15,31,106,8.81,56.45,38.58,56.48h5.1a30.72,30.72,0,0,0,15.38-4.24,38,38,0,0,0,17.29-22.71l44.57-154.92L617.75,558Q627.8,593.8,650.37,671.3q20.7,71.13,52,177.39,8.13,55.47,40.93,55.47h1.39a29.85,29.85,0,0,0,11.79-2.58c10.27-4.41,17.7-13.65,20.8-24.39L902.58,443.62a55.1,55.1,0,0,0,2.13-15.24Q904.71,404.71,872.59,397.91Z"/></svg>