<svg id="Layer_1" data-name="Layer 1" xmlns="http://www.w3.org/2000/svg" xmlns:xlink="http://www.w3.org/1999/xlink" viewBox="0 0 1080 1080"><defs><style>.cls-1{fill:url(#linear-gradient);}.cls-2{fill:#1a1a1a;}.cls-3{fill:#f97000;}.cls-4{fill:url(#linear-gradient-2);}</style><linearGradient id="linear-gradient" x1="826.68" y1="629.79" x2="826.68" y2="664.02" gradientUnits="userSpaceOnUse"><stop offset="0" stop-color="#ffbd1e"/><stop offset="1" stop-color="#f97000"/></linearGradient><linearGradient id="linear-gradient-2" x1="215.57" y1="430.76" x2="330.63" y2="598.06" xlink:href="#linear-gradient"/></defs><path class="cls-1" d="M861.64,646.91a8.92,8.92,0,0,1-2,5.66,18.12,18.12,0,0,1-4,3.76,38.23,38.23,0,0,1-9.24,4.62A57.87,57.87,0,0,1,826.63,664a66.22,66.22,0,0,1-19.78-3.19,36.56,36.56,0,0,1-9.26-4.51,17.22,17.22,0,0,1-4-3.77,8.89,8.89,0,0,1-1.9-5.64,8.37,8.37,0,0,1,2.38-5.24,16.5,16.5,0,0,1,4.15-3.12,36.85,36.85,0,0,1,9.23-3.36,64.72,64.72,0,0,1,9.54-1.55,90.76,90.76,0,0,1,9.61-.43,94.07,94.07,0,0,1,19.17,1.9,35.42,35.42,0,0,1,9.31,3.28,15.83,15.83,0,0,1,4.18,3.17A8.53,8.53,0,0,1,861.64,646.91Zm-3.59,0a5.09,5.09,0,0,0-1.16-3.38,13.56,13.56,0,0,0-3.13-3,33.6,33.6,0,0,0-8.32-4.17,56,56,0,0,0-18.81-3,61.73,61.73,0,0,0-18.83,2.91,32.78,32.78,0,0,0-8.41,4.08,13.52,13.52,0,0,0-3.16,3,5.29,5.29,0,0,0-1.13,3.49c.21,2.24,2.44,4.15,4.95,5.48a34.65,34.65,0,0,0,8.38,2.93,63.14,63.14,0,0,0,9,1.38,87.81,87.81,0,0,0,9.18.32,97.35,97.35,0,0,0,18.17-1.82,32.61,32.61,0,0,0,8.4-2.83C855.72,651.07,857.9,649.09,858.05,646.91Z"/><polygon class="cls-2" points="826.63 646.4 835.01 592.87 818.25 592.87 826.63 646.4"/><path class="cls-2" d="M519.69,598.17a72.88,72.88,0,0,1,8.23-34.39,66.2,66.2,0,0,0-7.73-10.12C507.73,540,491.87,533.09,473,533.09s-34.73,7-47.21,20.7a64.55,64.55,0,0,0-16.92,44.38c0,17.05,6,32.16,17.87,44.91S454.25,662.4,473,662.4h.32c17.72-1.5,31.36-7.39,40.74-17.59v18.12h23.31v-3c0-1.12.18-.82.19-13.8A71.53,71.53,0,0,1,519.69,598.17ZM499.4,626.59q-9.06,10.36-21.5,12.62c-12.52,2.29-25.21-2.33-34.2-11.33a36.44,36.44,0,0,1-5.66-7.25,43.62,43.62,0,0,1-6.3-22.25A41.83,41.83,0,0,1,444,567.9c8.18-8.46,17.68-12.57,29-12.57s20.71,4.09,28.68,12.52a43.07,43.07,0,0,1,6.73,9.21,12.71,12.71,0,0,1,1,2.48c0,.08,0,.16.07.25C514,596.12,510.56,613.83,499.4,626.59Z"/><path class="cls-3" d="M826.64,533.08a31.17,31.17,0,0,0-2.08,62.28h4.16a31.17,31.17,0,0,0-2.08-62.28Zm-10.41,31.19a8.32,8.32,0,1,1,8.33-8.31A8.32,8.32,0,0,1,816.23,564.27Z"/><path class="cls-4" d="M368.17,512.42a96.36,96.36,0,0,1-85.56,95.83l-.16,0a97.37,97.37,0,0,1-10.72.59,96.41,96.41,0,0,1-90.32-62.6l57.66-2.85,19.3-1-19.85-1-59.66-3a96.47,96.47,0,0,1,184-57.76L297.39,484l67.47,3.34A95.7,95.7,0,0,1,368.17,512.42Z"/><path class="cls-2" d="M656.27,598.17A63.74,63.74,0,0,0,639,553.66c-12.45-13.64-28.32-20.58-47.18-20.58s-34.73,7-47.2,20.71a64.51,64.51,0,0,0-16.93,44.38c0,17.05,6,32.16,17.87,44.91s27.5,19.32,46.26,19.32h.32c17.72-1.5,31.36-7.39,40.74-17.59v18.12h23.25l.06-3C656.14,657.55,656.48,658.57,656.27,598.17Zm-38.06,28.42c-6.05,6.91-13.19,11.11-21.5,12.62-12.52,2.29-25.2-2.32-34.19-11.33a36.13,36.13,0,0,1-5.67-7.25,43.61,43.61,0,0,1-6.29-22.25c0-12,4-22,12.23-30.48s17.68-12.57,29-12.57,20.71,4.09,28.68,12.51a43.76,43.76,0,0,1,6.72,9.19,12.69,12.69,0,0,1,1,2.54c0,.09,0,.17.07.25C632.79,596.15,629.37,613.84,618.21,626.59Z"/><path class="cls-2" d="M411.73,491.28h-2.07a8.73,8.73,0,0,0-4.64,1.43,13.28,13.28,0,0,0-5.5,7.62l-31.4,108c-5.77-18.53-10.55-33.32-14.44-45.05-8.48-25.7-12.71-36.73-13.88-40.4-4.15-13-6.56-17.9-13.68-17.9h-1.26a10.73,10.73,0,0,0-5.43,1.52,11.37,11.37,0,0,0-4.88,6.45c-3.44,10.82-13.7,31.26-31.94,95.31l-.08.3-.08-.28-25.28-88-1.06-3.71L253.37,507q-2.64-15.74-12.84-15.72h-1.85a9.27,9.27,0,0,0-8.29,4.84A14.55,14.55,0,0,0,229,507.54q2.56,9.62,9.56,33.93l19.85,1-19.3,1q7.16,24.89,18.71,64.44,4.86,16.67,10.51,35.94,3,19.14,13.08,19.15h1.73a10.39,10.39,0,0,0,5.22-1.44,12.86,12.86,0,0,0,5.86-7.7l15.11-52.53,16-55.72q3.41,12.15,11.06,38.43,7,24.12,17.62,60.15,2.76,18.81,13.88,18.81h.46a10,10,0,0,0,4-.88,12.73,12.73,0,0,0,7.06-8.27l42.5-147a18.75,18.75,0,0,0,.71-5.17Q422.62,493.59,411.73,491.28Z"/><path class="cls-2" d="M787.62,564.5a39.09,39.09,0,0,1,7.87-23.57V491.27H773v58.89a62.53,62.53,0,0,0-15.56-10.89,61.75,61.75,0,0,0-27.21-6.06c-17.37,0-32.44,6.43-44.8,19.06s-18.58,28.16-18.58,46.13a62.82,62.82,0,0,0,18.7,45.6c12.41,12.57,27.58,18.93,45.11,18.93a69.91,69.91,0,0,0,28.18-5.76c8.77-3.85,14.34-7.17,21.67-15.4h0a43,43,0,0,0,5.93-8.53,91.2,91.2,0,0,0,5.27-11.94,67.26,67.26,0,0,0,3.78-22.59V588A39.11,39.11,0,0,1,787.62,564.5Zm-25.81,64a41.08,41.08,0,0,1-13.58,9.34,41.94,41.94,0,0,1-16.31,3.07,41.24,41.24,0,0,1-21.2-5.66,42.12,42.12,0,0,1-15.4-15.8,43.3,43.3,0,0,1-5.75-21.61,44.07,44.07,0,0,1,5.82-21.7,41.91,41.91,0,0,1,15.54-16,40.81,40.81,0,0,1,20.77-5.66,43.31,43.31,0,0,1,21.43,5.7,39.57,39.57,0,0,1,15.46,15.36,44.3,44.3,0,0,1,5.46,21.91C774.05,610,770,620.17,761.81,628.53Z"/><path class="cls-2" d="M874.69,555a7.64,7.64,0,0,1,3.55-.82,7.82,7.82,0,0,1,4.12,1.12,7.74,7.74,0,0,1,2.93,3.12,9.65,9.65,0,0,1,1.07,4.61,10,10,0,0,1-1.07,4.65,7.9,7.9,0,0,1-2.93,3.2,7.76,7.76,0,0,1-4.12,1.15,7.5,7.5,0,0,1-3.51-.8,7.88,7.88,0,0,1-2.51-2v10.72h-3.58V554.44h3.58V557A7.13,7.13,0,0,1,874.69,555Zm7.3,4.94a5.09,5.09,0,0,0-2-2,5.21,5.21,0,0,0-2.59-.67,5,5,0,0,0-2.55.69,5.21,5.21,0,0,0-1.95,2,6.3,6.3,0,0,0-.73,3.11,6.37,6.37,0,0,0,.73,3.12,5.13,5.13,0,0,0,1.95,2,5.1,5.1,0,0,0,5.14,0,5.24,5.24,0,0,0,2-2.06,6.43,6.43,0,0,0,.73-3.13A6.14,6.14,0,0,0,882,559.91Z"/><path class="cls-2" d="M896.74,563.09l8,8.62h-4.83l-6.4-7.43v7.43H889.9v-23.2h3.58V562l6.27-7.55h5Z"/></svg>